<svg xmlns="http://www.w3.org/2000/svg" xmlns:xlink="http://www.w3.org/1999/xlink" version="1.1" width="1000" height="1000" viewBox="0 0 1000 1000" xml:space="preserve">
<desc>Created with Fabric.js 3.5.0</desc>
<defs>
</defs>
<g transform="matrix(1.4205 0 0 1.4205 500.0145 500.0102)" id="365478">
<path style="stroke: none; stroke-width: 1; stroke-dasharray: none; stroke-linecap: butt; stroke-dashoffset: 0; stroke-linejoin: miter; stroke-miterlimit: 4; is-custom-font: none; font-file-url: none; fill: rgb(252,238,33); fill-rule: nonzero; opacity: 1;" vector-effect="non-scaling-stroke" transform=" translate(-320, -256)" d="M 0 336 c 0 79.5 64.5 144 144 144 H 512 c 70.7 0 128 -57.3 128 -128 c 0 -61.9 -44 -113.6 -102.4 -125.4 c 4.1 -10.7 6.4 -22.4 6.4 -34.6 c 0 -53 -43 -96 -96 -96 c -19.7 0 -38.1 6 -53.3 16.2 C 367 64.2 315.3 32 256 32 C 167.6 32 96 103.6 96 192 c 0 2.7 0.1 5.4 0.2 8.1 C 40.2 219.8 0 273.2 0 336 z" stroke-linecap="round"/>
</g>
</svg>